<?xml version="1.0" encoding="UTF-8" standalone="no"?>
<!-- Created with Inkscape (http://www.inkscape.org/) -->

<svg
   width="50.474998mm"
   height="49.974991mm"
   viewBox="0 0 50.474998 49.974991"
   version="1.1"
   id="svg1"
   inkscape:version="1.4 (86a8ad7, 2024-10-11)"
   sodipodi:docname="NodeIcons.svg"
   xmlns:inkscape="http://www.inkscape.org/namespaces/inkscape"
   xmlns:sodipodi="http://sodipodi.sourceforge.net/DTD/sodipodi-0.dtd"
   xmlns:xlink="http://www.w3.org/1999/xlink"
   xmlns="http://www.w3.org/2000/svg"
   xmlns:svg="http://www.w3.org/2000/svg">
  <sodipodi:namedview
     id="namedview1"
     pagecolor="#292929"
     bordercolor="#000000"
     borderopacity="0.25"
     inkscape:showpageshadow="2"
     inkscape:pageopacity="0.0"
     inkscape:pagecheckerboard="0"
     inkscape:deskcolor="#d1d1d1"
     inkscape:document-units="mm"
     showgrid="true"
     inkscape:zoom="1.4142136"
     inkscape:cx="396.33335"
     inkscape:cy="298.04551"
     inkscape:window-width="1920"
     inkscape:window-height="1147"
     inkscape:window-x="-8"
     inkscape:window-y="-8"
     inkscape:window-maximized="1"
     inkscape:current-layer="layer2">
    <inkscape:grid
       id="grid1"
       units="mm"
       originx="-64.773645"
       originy="-9.7513634"
       spacingx="0.99999998"
       spacingy="1"
       empcolor="#0099e5"
       empopacity="0.30196078"
       color="#0099e5"
       opacity="0.14901961"
       empspacing="5"
       enabled="true"
       visible="true" />
    <inkscape:page
       x="0"
       y="0"
       width="50.474998"
       height="49.974991"
       id="page2"
       margin="0"
       bleed="0" />
  </sodipodi:namedview>
  <defs
     id="defs1" />
  <g
     inkscape:label="Icon Frame"
     inkscape:groupmode="layer"
     id="layer1"
     inkscape:tile-cx="39.999999"
     inkscape:tile-cy="49.999999"
     inkscape:tile-w="50.499999"
     inkscape:tile-h="50.499999"
     inkscape:tile-x0="14.75"
     inkscape:tile-y0="24.749999"
     transform="translate(-64.773646,-9.7513635)">
    <rect
       style="fill:none;stroke:#808080;stroke-width:0.497271;stroke-linecap:round;stroke-linejoin:bevel;stroke-dasharray:none"
       id="rect1"
       width="49.977726"
       height="49.477722"
       x="9.7736397"
       y="10.273639"
       ry="4.7263608"
       inkscape:export-filename="..\..\opossum_gui\assets\icons\node_unknown.svg"
       inkscape:export-xdpi="96"
       inkscape:export-ydpi="96" />
    <use
       x="0"
       y="0"
       xlink:href="#rect1"
       id="use144"
       transform="translate(55.248637,-0.27363901)"
       inkscape:export-filename="..\..\opossum_gui\assets\icons\node_group.svg"
       inkscape:export-xdpi="96"
       inkscape:export-ydpi="96" />
  </g>
  <g
     inkscape:groupmode="layer"
     id="layer2"
     inkscape:label="Icon Frame 1"
     transform="translate(-64.773646,-9.7513635)">
    <path
       style="font-size:35.2778px;font-family:Sans;-inkscape-font-specification:'Sans, Normal';text-align:center;text-anchor:middle;fill:#808080;stroke-width:0.5;stroke-linecap:round;stroke-linejoin:bevel"
       d="m 86.66009,51.516487 h -2.583824 q -3.083362,0 -5.012617,-1.722549 -1.912029,-1.705323 -1.912029,-4.943715 v -2.566598 q 0,-2.911108 -1.429716,-4.547529 -1.429715,-1.653647 -4.375274,-1.653647 h -0.8785 v -2.687176 h 0.8785 q 2.945559,0 4.375274,-1.636422 1.429716,-1.653647 1.429716,-4.564754 v -2.566598 q 0,-3.238392 1.912029,-4.943716 1.929255,-1.722549 5.012617,-1.722549 h 2.583824 v 2.377118 h -1.963706 q -2.342667,0 -3.410647,1.085206 -1.050755,1.085205 -1.050755,3.496774 v 3.014461 q 0,2.394343 -1.326362,4.030764 -1.326363,1.619196 -3.686255,2.566598 v 0.413412 q 2.359892,0.947401 3.686255,2.583823 1.326362,1.619196 1.326362,4.013539 v 3.01446 q 0,2.411569 1.050755,3.496775 1.06798,1.085206 3.410647,1.085206 h 1.963706 z m 22.63429,-15.434038 h -0.8785 q -2.94556,0 -4.37527,1.653647 -1.42972,1.636421 -1.42972,4.547529 v 2.566598 q 0,3.238392 -1.92925,4.943715 -1.912032,1.722549 -4.995395,1.722549 H 93.102422 V 49.13937 h 1.963706 q 2.342666,0 3.393421,-1.085206 1.06798,-1.085206 1.06798,-3.496775 v -3.01446 q 0,-2.394343 1.326361,-4.013539 1.32636,-1.636422 3.68626,-2.583823 v -0.413412 q -2.3599,-0.947402 -3.68626,-2.566598 -1.326361,-1.636421 -1.326361,-4.030764 v -3.014461 q 0,-2.411569 -1.06798,-3.496774 -1.050755,-1.085206 -3.393421,-1.085206 h -1.963706 v -2.377118 h 2.583823 q 3.083363,0 4.995395,1.722549 1.92925,1.705324 1.92925,4.943716 v 2.566598 q 0,2.911107 1.42972,4.564754 1.42971,1.636422 4.37527,1.636422 h 0.8785 z"
       id="text152"
       aria-label="{}" />
  </g>
</svg>
