<svg width="640" height="480" viewBox="0 0 640 480" xmlns="http://www.w3.org/2000/svg">
<rect x="0" y="0" width="640" height="480" opacity="1" fill="#FFFFFF" stroke="none"/>
<line opacity="0.1" stroke="#000000" stroke-width="1" x1="35" y1="444" x2="35" y2="5"/>
<line opacity="0.1" stroke="#000000" stroke-width="1" x1="41" y1="444" x2="41" y2="5"/>
<line opacity="0.1" stroke="#000000" stroke-width="1" x1="47" y1="444" x2="47" y2="5"/>
<line opacity="0.1" stroke="#000000" stroke-width="1" x1="53" y1="444" x2="53" y2="5"/>
<line opacity="0.1" stroke="#000000" stroke-width="1" x1="59" y1="444" x2="59" y2="5"/>
<line opacity="0.1" stroke="#000000" stroke-width="1" x1="65" y1="444" x2="65" y2="5"/>
<line opacity="0.1" stroke="#000000" stroke-width="1" x1="71" y1="444" x2="71" y2="5"/>
<line opacity="0.1" stroke="#000000" stroke-width="1" x1="77" y1="444" x2="77" y2="5"/>
<line opacity="0.1" stroke="#000000" stroke-width="1" x1="83" y1="444" x2="83" y2="5"/>
<line opacity="0.1" stroke="#000000" stroke-width="1" x1="89" y1="444" x2="89" y2="5"/>
<line opacity="0.1" stroke="#000000" stroke-width="1" x1="95" y1="444" x2="95" y2="5"/>
<line opacity="0.1" stroke="#000000" stroke-width="1" x1="101" y1="444" x2="101" y2="5"/>
<line opacity="0.1" stroke="#000000" stroke-width="1" x1="107" y1="444" x2="107" y2="5"/>
<line opacity="0.1" stroke="#000000" stroke-width="1" x1="113" y1="444" x2="113" y2="5"/>
<line opacity="0.1" stroke="#000000" stroke-width="1" x1="119" y1="444" x2="119" y2="5"/>
<line opacity="0.1" stroke="#000000" stroke-width="1" x1="125" y1="444" x2="125" y2="5"/>
<line opacity="0.1" stroke="#000000" stroke-width="1" x1="131" y1="444" x2="131" y2="5"/>
<line opacity="0.1" stroke="#000000" stroke-width="1" x1="137" y1="444" x2="137" y2="5"/>
<line opacity="0.1" stroke="#000000" stroke-width="1" x1="143" y1="444" x2="143" y2="5"/>
<line opacity="0.1" stroke="#000000" stroke-width="1" x1="149" y1="444" x2="149" y2="5"/>
<line opacity="0.1" stroke="#000000" stroke-width="1" x1="155" y1="444" x2="155" y2="5"/>
<line opacity="0.1" stroke="#000000" stroke-width="1" x1="161" y1="444" x2="161" y2="5"/>
<line opacity="0.1" stroke="#000000" stroke-width="1" x1="167" y1="444" x2="167" y2="5"/>
<line opacity="0.1" stroke="#000000" stroke-width="1" x1="173" y1="444" x2="173" y2="5"/>
<line opacity="0.1" stroke="#000000" stroke-width="1" x1="179" y1="444" x2="179" y2="5"/>
<line opacity="0.1" stroke="#000000" stroke-width="1" x1="185" y1="444" x2="185" y2="5"/>
<line opacity="0.1" stroke="#000000" stroke-width="1" x1="191" y1="444" x2="191" y2="5"/>
<line opacity="0.1" stroke="#000000" stroke-width="1" x1="197" y1="444" x2="197" y2="5"/>
<line opacity="0.1" stroke="#000000" stroke-width="1" x1="203" y1="444" x2="203" y2="5"/>
<line opacity="0.1" stroke="#000000" stroke-width="1" x1="209" y1="444" x2="209" y2="5"/>
<line opacity="0.1" stroke="#000000" stroke-width="1" x1="215" y1="444" x2="215" y2="5"/>
<line opacity="0.1" stroke="#000000" stroke-width="1" x1="221" y1="444" x2="221" y2="5"/>
<line opacity="0.1" stroke="#000000" stroke-width="1" x1="227" y1="444" x2="227" y2="5"/>
<line opacity="0.1" stroke="#000000" stroke-width="1" x1="233" y1="444" x2="233" y2="5"/>
<line opacity="0.1" stroke="#000000" stroke-width="1" x1="239" y1="444" x2="239" y2="5"/>
<line opacity="0.1" stroke="#000000" stroke-width="1" x1="245" y1="444" x2="245" y2="5"/>
<line opacity="0.1" stroke="#000000" stroke-width="1" x1="251" y1="444" x2="251" y2="5"/>
<line opacity="0.1" stroke="#000000" stroke-width="1" x1="257" y1="444" x2="257" y2="5"/>
<line opacity="0.1" stroke="#000000" stroke-width="1" x1="263" y1="444" x2="263" y2="5"/>
<line opacity="0.1" stroke="#000000" stroke-width="1" x1="269" y1="444" x2="269" y2="5"/>
<line opacity="0.1" stroke="#000000" stroke-width="1" x1="275" y1="444" x2="275" y2="5"/>
<line opacity="0.1" stroke="#000000" stroke-width="1" x1="281" y1="444" x2="281" y2="5"/>
<line opacity="0.1" stroke="#000000" stroke-width="1" x1="287" y1="444" x2="287" y2="5"/>
<line opacity="0.1" stroke="#000000" stroke-width="1" x1="293" y1="444" x2="293" y2="5"/>
<line opacity="0.1" stroke="#000000" stroke-width="1" x1="299" y1="444" x2="299" y2="5"/>
<line opacity="0.1" stroke="#000000" stroke-width="1" x1="305" y1="444" x2="305" y2="5"/>
<line opacity="0.1" stroke="#000000" stroke-width="1" x1="311" y1="444" x2="311" y2="5"/>
<line opacity="0.1" stroke="#000000" stroke-width="1" x1="317" y1="444" x2="317" y2="5"/>
<line opacity="0.1" stroke="#000000" stroke-width="1" x1="323" y1="444" x2="323" y2="5"/>
<line opacity="0.1" stroke="#000000" stroke-width="1" x1="329" y1="444" x2="329" y2="5"/>
<line opacity="0.1" stroke="#000000" stroke-width="1" x1="335" y1="444" x2="335" y2="5"/>
<line opacity="0.1" stroke="#000000" stroke-width="1" x1="341" y1="444" x2="341" y2="5"/>
<line opacity="0.1" stroke="#000000" stroke-width="1" x1="347" y1="444" x2="347" y2="5"/>
<line opacity="0.1" stroke="#000000" stroke-width="1" x1="353" y1="444" x2="353" y2="5"/>
<line opacity="0.1" stroke="#000000" stroke-width="1" x1="359" y1="444" x2="359" y2="5"/>
<line opacity="0.1" stroke="#000000" stroke-width="1" x1="365" y1="444" x2="365" y2="5"/>
<line opacity="0.1" stroke="#000000" stroke-width="1" x1="371" y1="444" x2="371" y2="5"/>
<line opacity="0.1" stroke="#000000" stroke-width="1" x1="377" y1="444" x2="377" y2="5"/>
<line opacity="0.1" stroke="#000000" stroke-width="1" x1="383" y1="444" x2="383" y2="5"/>
<line opacity="0.1" stroke="#000000" stroke-width="1" x1="389" y1="444" x2="389" y2="5"/>
<line opacity="0.1" stroke="#000000" stroke-width="1" x1="395" y1="444" x2="395" y2="5"/>
<line opacity="0.1" stroke="#000000" stroke-width="1" x1="401" y1="444" x2="401" y2="5"/>
<line opacity="0.1" stroke="#000000" stroke-width="1" x1="407" y1="444" x2="407" y2="5"/>
<line opacity="0.1" stroke="#000000" stroke-width="1" x1="413" y1="444" x2="413" y2="5"/>
<line opacity="0.1" stroke="#000000" stroke-width="1" x1="419" y1="444" x2="419" y2="5"/>
<line opacity="0.1" stroke="#000000" stroke-width="1" x1="425" y1="444" x2="425" y2="5"/>
<line opacity="0.1" stroke="#000000" stroke-width="1" x1="431" y1="444" x2="431" y2="5"/>
<line opacity="0.1" stroke="#000000" stroke-width="1" x1="437" y1="444" x2="437" y2="5"/>
<line opacity="0.1" stroke="#000000" stroke-width="1" x1="443" y1="444" x2="443" y2="5"/>
<line opacity="0.1" stroke="#000000" stroke-width="1" x1="449" y1="444" x2="449" y2="5"/>
<line opacity="0.1" stroke="#000000" stroke-width="1" x1="455" y1="444" x2="455" y2="5"/>
<line opacity="0.1" stroke="#000000" stroke-width="1" x1="461" y1="444" x2="461" y2="5"/>
<line opacity="0.1" stroke="#000000" stroke-width="1" x1="467" y1="444" x2="467" y2="5"/>
<line opacity="0.1" stroke="#000000" stroke-width="1" x1="473" y1="444" x2="473" y2="5"/>
<line opacity="0.1" stroke="#000000" stroke-width="1" x1="479" y1="444" x2="479" y2="5"/>
<line opacity="0.1" stroke="#000000" stroke-width="1" x1="485" y1="444" x2="485" y2="5"/>
<line opacity="0.1" stroke="#000000" stroke-width="1" x1="491" y1="444" x2="491" y2="5"/>
<line opacity="0.1" stroke="#000000" stroke-width="1" x1="497" y1="444" x2="497" y2="5"/>
<line opacity="0.1" stroke="#000000" stroke-width="1" x1="503" y1="444" x2="503" y2="5"/>
<line opacity="0.1" stroke="#000000" stroke-width="1" x1="509" y1="444" x2="509" y2="5"/>
<line opacity="0.1" stroke="#000000" stroke-width="1" x1="515" y1="444" x2="515" y2="5"/>
<line opacity="0.1" stroke="#000000" stroke-width="1" x1="521" y1="444" x2="521" y2="5"/>
<line opacity="0.1" stroke="#000000" stroke-width="1" x1="527" y1="444" x2="527" y2="5"/>
<line opacity="0.1" stroke="#000000" stroke-width="1" x1="533" y1="444" x2="533" y2="5"/>
<line opacity="0.1" stroke="#000000" stroke-width="1" x1="539" y1="444" x2="539" y2="5"/>
<line opacity="0.1" stroke="#000000" stroke-width="1" x1="545" y1="444" x2="545" y2="5"/>
<line opacity="0.1" stroke="#000000" stroke-width="1" x1="551" y1="444" x2="551" y2="5"/>
<line opacity="0.1" stroke="#000000" stroke-width="1" x1="557" y1="444" x2="557" y2="5"/>
<line opacity="0.1" stroke="#000000" stroke-width="1" x1="563" y1="444" x2="563" y2="5"/>
<line opacity="0.1" stroke="#000000" stroke-width="1" x1="569" y1="444" x2="569" y2="5"/>
<line opacity="0.1" stroke="#000000" stroke-width="1" x1="575" y1="444" x2="575" y2="5"/>
<line opacity="0.1" stroke="#000000" stroke-width="1" x1="581" y1="444" x2="581" y2="5"/>
<line opacity="0.1" stroke="#000000" stroke-width="1" x1="587" y1="444" x2="587" y2="5"/>
<line opacity="0.1" stroke="#000000" stroke-width="1" x1="593" y1="444" x2="593" y2="5"/>
<line opacity="0.1" stroke="#000000" stroke-width="1" x1="599" y1="444" x2="599" y2="5"/>
<line opacity="0.1" stroke="#000000" stroke-width="1" x1="605" y1="444" x2="605" y2="5"/>
<line opacity="0.1" stroke="#000000" stroke-width="1" x1="611" y1="444" x2="611" y2="5"/>
<line opacity="0.1" stroke="#000000" stroke-width="1" x1="617" y1="444" x2="617" y2="5"/>
<line opacity="0.1" stroke="#000000" stroke-width="1" x1="623" y1="444" x2="623" y2="5"/>
<line opacity="0.1" stroke="#000000" stroke-width="1" x1="629" y1="444" x2="629" y2="5"/>
<line opacity="0.1" stroke="#000000" stroke-width="1" x1="35" y1="444" x2="634" y2="444"/>
<line opacity="0.1" stroke="#000000" stroke-width="1" x1="35" y1="438" x2="634" y2="438"/>
<line opacity="0.1" stroke="#000000" stroke-width="1" x1="35" y1="431" x2="634" y2="431"/>
<line opacity="0.1" stroke="#000000" stroke-width="1" x1="35" y1="424" x2="634" y2="424"/>
<line opacity="0.1" stroke="#000000" stroke-width="1" x1="35" y1="417" x2="634" y2="417"/>
<line opacity="0.1" stroke="#000000" stroke-width="1" x1="35" y1="410" x2="634" y2="410"/>
<line opacity="0.1" stroke="#000000" stroke-width="1" x1="35" y1="403" x2="634" y2="403"/>
<line opacity="0.1" stroke="#000000" stroke-width="1" x1="35" y1="396" x2="634" y2="396"/>
<line opacity="0.1" stroke="#000000" stroke-width="1" x1="35" y1="389" x2="634" y2="389"/>
<line opacity="0.1" stroke="#000000" stroke-width="1" x1="35" y1="382" x2="634" y2="382"/>
<line opacity="0.1" stroke="#000000" stroke-width="1" x1="35" y1="376" x2="634" y2="376"/>
<line opacity="0.1" stroke="#000000" stroke-width="1" x1="35" y1="369" x2="634" y2="369"/>
<line opacity="0.1" stroke="#000000" stroke-width="1" x1="35" y1="362" x2="634" y2="362"/>
<line opacity="0.1" stroke="#000000" stroke-width="1" x1="35" y1="355" x2="634" y2="355"/>
<line opacity="0.1" stroke="#000000" stroke-width="1" x1="35" y1="348" x2="634" y2="348"/>
<line opacity="0.1" stroke="#000000" stroke-width="1" x1="35" y1="341" x2="634" y2="341"/>
<line opacity="0.1" stroke="#000000" stroke-width="1" x1="35" y1="334" x2="634" y2="334"/>
<line opacity="0.1" stroke="#000000" stroke-width="1" x1="35" y1="327" x2="634" y2="327"/>
<line opacity="0.1" stroke="#000000" stroke-width="1" x1="35" y1="320" x2="634" y2="320"/>
<line opacity="0.1" stroke="#000000" stroke-width="1" x1="35" y1="313" x2="634" y2="313"/>
<line opacity="0.1" stroke="#000000" stroke-width="1" x1="35" y1="307" x2="634" y2="307"/>
<line opacity="0.1" stroke="#000000" stroke-width="1" x1="35" y1="300" x2="634" y2="300"/>
<line opacity="0.1" stroke="#000000" stroke-width="1" x1="35" y1="293" x2="634" y2="293"/>
<line opacity="0.1" stroke="#000000" stroke-width="1" x1="35" y1="286" x2="634" y2="286"/>
<line opacity="0.1" stroke="#000000" stroke-width="1" x1="35" y1="279" x2="634" y2="279"/>
<line opacity="0.1" stroke="#000000" stroke-width="1" x1="35" y1="272" x2="634" y2="272"/>
<line opacity="0.1" stroke="#000000" stroke-width="1" x1="35" y1="265" x2="634" y2="265"/>
<line opacity="0.1" stroke="#000000" stroke-width="1" x1="35" y1="258" x2="634" y2="258"/>
<line opacity="0.1" stroke="#000000" stroke-width="1" x1="35" y1="251" x2="634" y2="251"/>
<line opacity="0.1" stroke="#000000" stroke-width="1" x1="35" y1="245" x2="634" y2="245"/>
<line opacity="0.1" stroke="#000000" stroke-width="1" x1="35" y1="238" x2="634" y2="238"/>
<line opacity="0.1" stroke="#000000" stroke-width="1" x1="35" y1="231" x2="634" y2="231"/>
<line opacity="0.1" stroke="#000000" stroke-width="1" x1="35" y1="224" x2="634" y2="224"/>
<line opacity="0.1" stroke="#000000" stroke-width="1" x1="35" y1="217" x2="634" y2="217"/>
<line opacity="0.1" stroke="#000000" stroke-width="1" x1="35" y1="210" x2="634" y2="210"/>
<line opacity="0.1" stroke="#000000" stroke-width="1" x1="35" y1="203" x2="634" y2="203"/>
<line opacity="0.1" stroke="#000000" stroke-width="1" x1="35" y1="196" x2="634" y2="196"/>
<line opacity="0.1" stroke="#000000" stroke-width="1" x1="35" y1="189" x2="634" y2="189"/>
<line opacity="0.1" stroke="#000000" stroke-width="1" x1="35" y1="182" x2="634" y2="182"/>
<line opacity="0.1" stroke="#000000" stroke-width="1" x1="35" y1="176" x2="634" y2="176"/>
<line opacity="0.1" stroke="#000000" stroke-width="1" x1="35" y1="169" x2="634" y2="169"/>
<line opacity="0.1" stroke="#000000" stroke-width="1" x1="35" y1="162" x2="634" y2="162"/>
<line opacity="0.1" stroke="#000000" stroke-width="1" x1="35" y1="155" x2="634" y2="155"/>
<line opacity="0.1" stroke="#000000" stroke-width="1" x1="35" y1="148" x2="634" y2="148"/>
<line opacity="0.1" stroke="#000000" stroke-width="1" x1="35" y1="141" x2="634" y2="141"/>
<line opacity="0.1" stroke="#000000" stroke-width="1" x1="35" y1="134" x2="634" y2="134"/>
<line opacity="0.1" stroke="#000000" stroke-width="1" x1="35" y1="127" x2="634" y2="127"/>
<line opacity="0.1" stroke="#000000" stroke-width="1" x1="35" y1="120" x2="634" y2="120"/>
<line opacity="0.1" stroke="#000000" stroke-width="1" x1="35" y1="114" x2="634" y2="114"/>
<line opacity="0.1" stroke="#000000" stroke-width="1" x1="35" y1="107" x2="634" y2="107"/>
<line opacity="0.1" stroke="#000000" stroke-width="1" x1="35" y1="100" x2="634" y2="100"/>
<line opacity="0.1" stroke="#000000" stroke-width="1" x1="35" y1="93" x2="634" y2="93"/>
<line opacity="0.1" stroke="#000000" stroke-width="1" x1="35" y1="86" x2="634" y2="86"/>
<line opacity="0.1" stroke="#000000" stroke-width="1" x1="35" y1="79" x2="634" y2="79"/>
<line opacity="0.1" stroke="#000000" stroke-width="1" x1="35" y1="72" x2="634" y2="72"/>
<line opacity="0.1" stroke="#000000" stroke-width="1" x1="35" y1="65" x2="634" y2="65"/>
<line opacity="0.1" stroke="#000000" stroke-width="1" x1="35" y1="58" x2="634" y2="58"/>
<line opacity="0.1" stroke="#000000" stroke-width="1" x1="35" y1="51" x2="634" y2="51"/>
<line opacity="0.1" stroke="#000000" stroke-width="1" x1="35" y1="45" x2="634" y2="45"/>
<line opacity="0.1" stroke="#000000" stroke-width="1" x1="35" y1="38" x2="634" y2="38"/>
<line opacity="0.1" stroke="#000000" stroke-width="1" x1="35" y1="31" x2="634" y2="31"/>
<line opacity="0.1" stroke="#000000" stroke-width="1" x1="35" y1="24" x2="634" y2="24"/>
<line opacity="0.1" stroke="#000000" stroke-width="1" x1="35" y1="17" x2="634" y2="17"/>
<line opacity="0.1" stroke="#000000" stroke-width="1" x1="35" y1="10" x2="634" y2="10"/>
<line opacity="0.2" stroke="#000000" stroke-width="1" x1="35" y1="444" x2="35" y2="5"/>
<line opacity="0.2" stroke="#000000" stroke-width="1" x1="95" y1="444" x2="95" y2="5"/>
<line opacity="0.2" stroke="#000000" stroke-width="1" x1="155" y1="444" x2="155" y2="5"/>
<line opacity="0.2" stroke="#000000" stroke-width="1" x1="215" y1="444" x2="215" y2="5"/>
<line opacity="0.2" stroke="#000000" stroke-width="1" x1="275" y1="444" x2="275" y2="5"/>
<line opacity="0.2" stroke="#000000" stroke-width="1" x1="335" y1="444" x2="335" y2="5"/>
<line opacity="0.2" stroke="#000000" stroke-width="1" x1="395" y1="444" x2="395" y2="5"/>
<line opacity="0.2" stroke="#000000" stroke-width="1" x1="455" y1="444" x2="455" y2="5"/>
<line opacity="0.2" stroke="#000000" stroke-width="1" x1="515" y1="444" x2="515" y2="5"/>
<line opacity="0.2" stroke="#000000" stroke-width="1" x1="575" y1="444" x2="575" y2="5"/>
<line opacity="0.2" stroke="#000000" stroke-width="1" x1="35" y1="444" x2="634" y2="444"/>
<line opacity="0.2" stroke="#000000" stroke-width="1" x1="35" y1="376" x2="634" y2="376"/>
<line opacity="0.2" stroke="#000000" stroke-width="1" x1="35" y1="307" x2="634" y2="307"/>
<line opacity="0.2" stroke="#000000" stroke-width="1" x1="35" y1="238" x2="634" y2="238"/>
<line opacity="0.2" stroke="#000000" stroke-width="1" x1="35" y1="169" x2="634" y2="169"/>
<line opacity="0.2" stroke="#000000" stroke-width="1" x1="35" y1="100" x2="634" y2="100"/>
<line opacity="0.2" stroke="#000000" stroke-width="1" x1="35" y1="31" x2="634" y2="31"/>
<polyline fill="none" opacity="1" stroke="#000000" stroke-width="1" points="34,5 34,444 "/>
<text x="25" y="444" dy="0.5ex" text-anchor="end" font-family="sans-serif" font-size="9.67741935483871" opacity="1" fill="#000000">
0.0
</text>
<polyline fill="none" opacity="1" stroke="#000000" stroke-width="1" points="29,444 34,444 "/>
<text x="25" y="376" dy="0.5ex" text-anchor="end" font-family="sans-serif" font-size="9.67741935483871" opacity="1" fill="#000000">
0.5
</text>
<polyline fill="none" opacity="1" stroke="#000000" stroke-width="1" points="29,376 34,376 "/>
<text x="25" y="307" dy="0.5ex" text-anchor="end" font-family="sans-serif" font-size="9.67741935483871" opacity="1" fill="#000000">
1.0
</text>
<polyline fill="none" opacity="1" stroke="#000000" stroke-width="1" points="29,307 34,307 "/>
<text x="25" y="238" dy="0.5ex" text-anchor="end" font-family="sans-serif" font-size="9.67741935483871" opacity="1" fill="#000000">
1.5
</text>
<polyline fill="none" opacity="1" stroke="#000000" stroke-width="1" points="29,238 34,238 "/>
<text x="25" y="169" dy="0.5ex" text-anchor="end" font-family="sans-serif" font-size="9.67741935483871" opacity="1" fill="#000000">
2.0
</text>
<polyline fill="none" opacity="1" stroke="#000000" stroke-width="1" points="29,169 34,169 "/>
<text x="25" y="100" dy="0.5ex" text-anchor="end" font-family="sans-serif" font-size="9.67741935483871" opacity="1" fill="#000000">
2.5
</text>
<polyline fill="none" opacity="1" stroke="#000000" stroke-width="1" points="29,100 34,100 "/>
<text x="25" y="31" dy="0.5ex" text-anchor="end" font-family="sans-serif" font-size="9.67741935483871" opacity="1" fill="#000000">
3.0
</text>
<polyline fill="none" opacity="1" stroke="#000000" stroke-width="1" points="29,31 34,31 "/>
<polyline fill="none" opacity="1" stroke="#000000" stroke-width="1" points="35,445 634,445 "/>
<text x="35" y="455" dy="0.76em" text-anchor="middle" font-family="sans-serif" font-size="9.67741935483871" opacity="1" fill="#000000">
400.0
</text>
<polyline fill="none" opacity="1" stroke="#000000" stroke-width="1" points="35,445 35,450 "/>
<text x="95" y="455" dy="0.76em" text-anchor="middle" font-family="sans-serif" font-size="9.67741935483871" opacity="1" fill="#000000">
405.0
</text>
<polyline fill="none" opacity="1" stroke="#000000" stroke-width="1" points="95,445 95,450 "/>
<text x="155" y="455" dy="0.76em" text-anchor="middle" font-family="sans-serif" font-size="9.67741935483871" opacity="1" fill="#000000">
410.0
</text>
<polyline fill="none" opacity="1" stroke="#000000" stroke-width="1" points="155,445 155,450 "/>
<text x="215" y="455" dy="0.76em" text-anchor="middle" font-family="sans-serif" font-size="9.67741935483871" opacity="1" fill="#000000">
415.0
</text>
<polyline fill="none" opacity="1" stroke="#000000" stroke-width="1" points="215,445 215,450 "/>
<text x="275" y="455" dy="0.76em" text-anchor="middle" font-family="sans-serif" font-size="9.67741935483871" opacity="1" fill="#000000">
420.0
</text>
<polyline fill="none" opacity="1" stroke="#000000" stroke-width="1" points="275,445 275,450 "/>
<text x="335" y="455" dy="0.76em" text-anchor="middle" font-family="sans-serif" font-size="9.67741935483871" opacity="1" fill="#000000">
425.0
</text>
<polyline fill="none" opacity="1" stroke="#000000" stroke-width="1" points="335,445 335,450 "/>
<text x="395" y="455" dy="0.76em" text-anchor="middle" font-family="sans-serif" font-size="9.67741935483871" opacity="1" fill="#000000">
430.0
</text>
<polyline fill="none" opacity="1" stroke="#000000" stroke-width="1" points="395,445 395,450 "/>
<text x="455" y="455" dy="0.76em" text-anchor="middle" font-family="sans-serif" font-size="9.67741935483871" opacity="1" fill="#000000">
435.0
</text>
<polyline fill="none" opacity="1" stroke="#000000" stroke-width="1" points="455,445 455,450 "/>
<text x="515" y="455" dy="0.76em" text-anchor="middle" font-family="sans-serif" font-size="9.67741935483871" opacity="1" fill="#000000">
440.0
</text>
<polyline fill="none" opacity="1" stroke="#000000" stroke-width="1" points="515,445 515,450 "/>
<text x="575" y="455" dy="0.76em" text-anchor="middle" font-family="sans-serif" font-size="9.67741935483871" opacity="1" fill="#000000">
445.0
</text>
<polyline fill="none" opacity="1" stroke="#000000" stroke-width="1" points="575,445 575,450 "/>
<polyline fill="none" opacity="1" stroke="#FF0000" stroke-width="1" points="35,444 36,444 37,444 38,444 39,444 41,444 42,444 43,444 44,444 45,444 47,444 48,444 49,444 50,444 51,444 53,444 54,444 55,444 56,444 57,444 59,444 60,444 61,444 62,444 63,444 65,444 66,444 67,444 68,444 69,444 71,444 72,444 73,444 74,444 75,444 77,444 78,444 79,444 80,444 81,444 83,444 84,444 85,444 86,444 87,444 89,444 90,444 91,444 92,444 93,444 95,444 96,444 97,444 98,444 99,444 101,444 102,444 103,444 104,444 105,444 107,444 108,444 109,444 110,444 111,444 113,444 114,444 115,444 116,444 117,444 119,444 120,444 121,444 122,444 123,444 125,444 126,444 127,444 128,444 129,443 131,443 132,443 133,443 134,443 135,443 137,443 138,442 139,442 140,441 141,441 143,440 144,439 145,438 146,436 147,433 149,428 150,419 151,401 152,357 153,225 155,5 156,225 157,357 158,401 159,419 161,428 162,433 163,436 164,438 165,439 167,440 168,441 169,441 170,442 171,442 173,443 174,443 175,443 176,443 177,443 179,443 180,443 181,444 182,444 183,444 185,444 186,444 187,444 188,444 189,444 191,444 192,444 193,444 194,444 195,444 197,444 198,444 199,444 200,444 201,444 203,444 204,444 205,444 206,444 207,444 209,444 210,444 211,444 212,444 213,444 215,444 216,444 217,444 218,444 219,444 221,444 222,444 223,444 224,444 225,444 227,444 228,444 229,444 230,444 231,444 233,444 234,444 235,444 236,444 237,444 239,444 240,444 241,444 242,444 243,444 245,444 246,444 247,444 248,444 249,444 251,444 252,444 253,444 254,444 255,444 257,444 258,444 259,444 260,444 261,444 263,444 264,444 265,444 266,444 267,444 269,444 270,444 271,444 272,444 273,444 275,444 276,444 277,444 278,444 279,444 281,444 282,444 283,444 284,444 285,444 287,444 288,444 289,444 290,444 291,444 293,444 294,444 295,444 296,444 297,444 299,444 300,444 301,444 302,444 303,444 305,444 306,444 307,444 308,444 309,444 311,444 312,444 313,444 314,444 315,444 317,444 318,444 319,444 320,444 321,444 323,444 324,444 325,444 326,444 327,444 329,444 330,444 331,444 332,444 333,444 335,444 336,444 337,444 338,444 339,444 341,444 342,444 343,444 344,444 345,444 347,444 348,444 349,444 350,444 351,444 353,444 354,444 355,444 356,444 357,444 359,444 360,444 361,444 362,443 363,443 365,443 366,443 367,443 368,443 369,443 371,443 372,443 373,443 374,443 375,443 377,443 378,443 379,443 380,443 381,443 383,443 384,443 385,443 386,443 387,426 389,426 390,426 391,426 392,426 393,426 395,426 396,426 397,426 398,426 399,426 401,426 402,426 403,426 404,426 405,426 407,426 408,426 409,426 410,426 411,426 413,439 414,439 415,439 416,439 417,439 419,439 420,439 421,439 422,439 423,439 425,439 426,439 427,439 428,439 429,439 431,439 432,439 433,439 434,439 435,439 437,439 438,444 439,444 440,444 441,444 443,444 444,444 445,444 446,444 447,444 449,444 450,444 451,444 452,444 453,444 455,444 456,444 457,444 458,444 459,444 461,444 462,444 463,444 464,444 465,444 467,444 468,444 469,444 470,444 471,444 473,444 474,444 475,444 476,444 477,444 479,444 480,444 481,444 482,444 483,444 485,444 486,444 487,444 488,444 489,444 491,444 492,444 493,444 494,444 495,444 497,444 498,444 499,444 500,444 501,444 503,444 504,444 505,444 506,444 507,444 509,444 510,444 511,444 512,444 513,444 515,444 516,444 517,444 518,444 519,444 521,444 522,444 523,444 524,444 525,444 527,444 528,444 529,444 530,444 531,444 533,444 534,444 535,444 536,444 537,444 539,444 540,444 541,444 542,444 543,444 545,444 546,444 547,444 548,444 549,444 551,444 552,444 553,444 554,444 555,444 557,444 558,444 559,444 560,444 561,444 563,444 564,444 565,444 566,444 567,444 569,444 570,444 571,444 572,444 573,444 575,444 576,444 577,444 578,444 579,444 581,444 582,444 583,444 584,444 585,444 587,444 588,444 589,444 590,444 591,444 593,444 594,444 595,444 596,444 597,444 599,444 600,444 601,444 602,444 603,444 605,444 606,444 607,444 608,444 609,444 611,444 612,444 613,444 614,444 615,444 617,444 618,444 619,444 620,444 621,444 623,444 624,444 625,444 626,444 627,444 629,444 630,444 631,444 632,444 634,444 "/>
</svg>
