<?xml version="1.0" encoding="UTF-8" standalone="no"?>
<!-- Created with Inkscape (http://www.inkscape.org/) -->

<svg
   version="1.1"
   id="svg870"
   width="500.24539"
   height="466.55075"
   viewBox="0 0 500.24539 466.55075"
   sodipodi:docname="Unbenannt.svg"
   inkscape:version="1.1.2 (0a00cf5339, 2022-02-04)"
   xmlns:inkscape="http://www.inkscape.org/namespaces/inkscape"
   xmlns:sodipodi="http://sodipodi.sourceforge.net/DTD/sodipodi-0.dtd"
   xmlns="http://www.w3.org/2000/svg"
   xmlns:svg="http://www.w3.org/2000/svg">
  <defs
     id="defs874" />
  <sodipodi:namedview
     id="namedview872"
     pagecolor="#ffffff"
     bordercolor="#666666"
     borderopacity="1.0"
     inkscape:pageshadow="2"
     inkscape:pageopacity="0.0"
     inkscape:pagecheckerboard="0"
     showgrid="false"
     fit-margin-top="0"
     fit-margin-left="0"
     fit-margin-right="0"
     fit-margin-bottom="0"
     inkscape:zoom="1.5195312"
     inkscape:cx="249.41902"
     inkscape:cy="237.24422"
     inkscape:window-width="2560"
     inkscape:window-height="1376"
     inkscape:window-x="0"
     inkscape:window-y="27"
     inkscape:window-maximized="1"
     inkscape:current-layer="g876" />
  <g
     inkscape:groupmode="layer"
     inkscape:label="Image"
     id="g876"
     transform="translate(-134.15938,-146.9612)">
    <path
       style="fill:#000000"
       d="m 375,612.64916 c -8.52221,-2.01715 -17.48157,-6.10366 -24.74452,-11.2864 C 343.29287,596.39435 322,576.39508 322,574.82389 c 0,-0.50308 2.78953,1.34242 6.19895,4.10111 4.6694,3.77819 7.55742,5.29782 11.70453,6.15876 7.65057,1.58825 15.2758,-0.12243 18.07626,-4.05531 2.68016,-3.76394 2.58081,-4.37747 -1.22974,-7.59418 -4.46563,-3.76969 -10.54056,-6.38606 -14.88871,-6.41231 -3.39085,-0.0205 -3.68544,-0.27105 -4.32473,-3.67876 -0.37731,-2.01124 -2.19892,-8.48214 -4.04803,-14.37979 -3.99088,-12.72873 -5.10752,-20.95095 -3.60373,-26.5356 4.15643,-15.43581 24.83726,-27.83497 48.52777,-29.09477 21.38609,-1.13725 43.34516,7.83069 51.5056,21.03455 3.28599,5.31686 4.3176,12.24935 3.17672,21.34799 -1.5868,12.65501 -5.2247,27.28442 -6.78482,27.28442 -3.14146,0 -14.66359,6.19866 -18.24369,9.81471 -4.09933,4.14051 -7.06638,9.03964 -7.06638,11.66785 0,0.87004 1.0125,1.98886 2.25,2.48628 2.06754,0.83105 2.08781,0.91048 0.25,0.97958 -2.58116,0.097 7.54179,5.02533 11.29897,5.50083 1.51243,0.19141 4.39416,-0.21727 6.40384,-0.90816 5.13266,-1.76453 16.98798,-10.96369 25.54719,-19.82339 3.9875,-4.1275 7.24989,-7.215 7.24977,-6.86112 -3.3e-4,0.90301 -26.05123,28.72999 -31.77709,33.94357 -5.87866,5.35271 -13.12895,9.54556 -19.98071,11.55488 -7.60617,2.23054 -20.66479,2.85089 -27.24197,1.29413 z m -89.5,-36.33272 c -14.2019,-0.37633 -60.83908,-3.16541 -81.4613,-4.87169 C 194.43499,570.65014 185.99749,570 185.2887,570 184.57992,570 184,569.04981 184,567.88846 c 0,-2.07193 0.23917,-2.09948 12.75,-1.46859 7.0125,0.35362 28.05,1.13489 46.75,1.73617 58.68751,1.88702 60.92095,2.04276 61.34799,4.27786 0.48855,2.55704 -2.48515,4.61708 -6.28912,4.35681 C 296.87649,576.6756 291,576.46218 285.5,576.31644 Z m 192.25,-0.86426 c -2.65903,-2.78494 1.46098,-3.73728 27.75,-6.41444 11.55,-1.17621 33.29023,-3.46587 48.31162,-5.08815 C 585.02532,560.57858 589,560.40102 589,562.37756 c 0,0.75765 -0.56595,1.84725 -1.25767,2.42133 -0.69172,0.57407 -10.92922,1.9952 -22.75,3.15805 -11.82078,1.16284 -31.57235,3.23166 -43.89237,4.59736 -26.40386,2.92693 -42.30718,3.99004 -43.34996,2.89788 z M 298.32655,565.42124 c -4.15256,-1.7855 -4.76373,-2.95158 -3.34375,-6.37971 1.75539,-4.23789 9.50036,-4.68121 13.99932,-0.80132 2.63572,2.27304 2.55585,4.37797 -0.23212,6.11777 -3.51758,2.1951 -6.97168,2.54744 -10.42345,1.06326 z M 498,564.72251 c 0,-3.66383 3.354,-5.76236 14.79173,-9.25492 6.43955,-1.96634 17.51685,-5.38732 24.61623,-7.60217 C 552.5186,543.15123 576.48051,537 579.73382,537 c 1.55986,0 2.26618,0.59227 2.26618,1.90026 0,1.47015 -1.18829,2.17753 -5.25,3.12528 -13.36167,3.11778 -56.26621,16.73976 -72.0651,22.88032 -3.76489,1.46329 -6.6849,1.38321 -6.6849,-0.18335 z m -8.61191,-12.15356 c -0.33114,-0.86292 -0.3774,-2.15442 -0.10281,-2.87 0.49373,-1.28664 28.80694,-13.80997 44.23595,-19.56618 33.63118,-12.54702 41.11767,-14.89387 42.64365,-13.36789 2.17693,2.17693 -0.1608,4.0688 -8.34277,6.75163 -8.1559,2.67428 -15.64716,5.63459 -44.82211,17.71229 -31.42161,13.00777 -32.79428,13.47089 -33.61191,11.34015 z m -189.47376,0.0121 c -0.57113,-0.57114 -35.82885,-5.26585 -49.41433,-6.57973 -6.05,-0.5851 -22.41573,-1.68798 -36.36828,-2.45083 -13.95255,-0.76285 -25.81584,-1.83456 -26.36287,-2.38159 -2.29279,-2.29279 0.62865,-3.1686 10.54017,-3.15979 27.89515,0.0248 63.25598,3.12607 96.94098,8.50205 2.13198,0.34026 2.75,0.04 2.75,-1.33611 0,-0.97625 0.496,-2.271 1.10223,-2.87723 1.45854,-1.45854 -2.13546,-6.3558 -7.28168,-9.92213 C 289.71925,530.91944 288,528.9792 288,528.064 c 0,-3.8636 4.91277,-5.35358 8.55887,-2.5958 1.86996,1.41436 6.44113,2.11137 6.44113,0.98214 0,-1.50815 -3.56443,-7.30945 -6.19658,-10.08526 -3.81905,-4.02749 -3.58864,-7.71775 0.51122,-8.18774 1.54804,-0.17746 3.85897,0.36162 5.13538,1.19795 2.83337,1.8565 3.54998,1.25894 3.54998,-2.96017 0,-4.78615 0.9241,-6.41512 3.63921,-6.41512 3.69115,0 4.1809,3.01282 2.24996,13.84114 -0.94733,5.31237 -2.00484,11.68386 -2.35004,14.15886 -0.34953,2.50613 -1.93726,6.39605 -3.58338,8.77924 -3.50435,5.07348 -3.54512,5.3716 -0.95575,6.98869 2.39305,1.49448 2.61566,5.47356 0.42857,7.66064 -1.46368,1.46368 -4.55659,2.11007 -5.51424,1.15243 z M 455.2,548.8 c -1.80656,-1.80656 -1.44395,-5.26925 0.76071,-7.26445 1.55712,-1.40917 2.8951,-1.6343 6.5,-1.09371 5.22054,0.78286 5.86779,2.59952 2.46671,6.9233 -2.25602,2.86807 -7.51803,3.64425 -9.72742,1.43486 z m 30.29447,-7.80895 c -1.27631,-2.0651 0.72409,-4.91704 4.8017,-6.84572 2.31211,-1.09361 12.75383,-6.10103 23.20383,-11.12761 31.02142,-14.92169 37,-17.02293 37,-13.00402 0,0.88279 -4.06181,3.51653 -10.00333,6.4863 -26.30308,13.14716 -52.11461,25.52968 -53.18765,25.51561 -0.65504,-0.009 -1.47159,-0.46964 -1.81455,-1.02456 z M 451.2313,534.75 c -3.61547,-5.36369 -6.23505,-11.00896 -6.21853,-13.40113 0.0185,-2.6771 4.84811,-17.4529 6.56953,-20.09887 1.89307,-2.90982 5.16987,-2.88804 6.50545,0.0432 0.99498,2.18374 0.39536,4.98568 -2.55711,11.94911 -0.69252,1.63333 -0.46629,1.64732 3.61531,0.22366 2.39473,-0.83528 4.80405,-2.1084 5.35405,-2.82915 0.55,-0.72076 10.9,-6.4018 23,-12.62454 12.1,-6.22274 32.97386,-17.11943 46.38635,-24.21488 14.15666,-7.48912 25.273,-12.77425 26.5,-12.59912 1.34184,0.19152 2.11365,1.02786 2.11365,2.29037 0,2.17726 -3.13196,4.11414 -33.5,20.7172 -24.44347,13.36393 -47.72446,24.94752 -59.5,29.60456 -14.18562,5.61019 -15.5,6.30581 -15.5,8.20327 0,1.42185 0.77672,1.61806 4.85419,1.22627 C 464.18403,522.72786 468,524.16623 468,526.68736 468,528.7838 457.79447,539 455.70021,539 c -0.88227,0 -2.89328,-1.9125 -4.46891,-4.25 z M 279,536.09221 c -2.35796,-1.33142 -46.56523,-12.58824 -67,-17.06069 -10.175,-2.22695 -19.5125,-4.48542 -20.75,-5.01882 -2.40457,-1.03645 -3.03406,-3.58468 -1.04897,-4.24638 1.82346,-0.60782 51.98935,9.66372 69.69162,14.26946 24.72621,6.43323 26.10735,6.90063 26.10735,8.83518 0,3.46633 -3.61764,5.13109 -7,3.22125 z m 199,-10.90478 c 0,-3.33204 6.73936,-7.24042 37.5,-21.74749 18.15,-8.55975 34.30664,-16.21045 35.90364,-17.00156 3.33744,-1.65327 7.20513,-1.88043 8.07422,-0.4742 0.89768,1.45247 -4.02851,4.2194 -39.97786,22.45462 -31.23681,15.8448 -41.5,19.99178 -41.5,16.76863 z m 15.03051,-96.17862 c -14.82608,-5.46029 -23.62749,-19.82323 -22.88081,-37.33894 0.60597,-14.21482 6.83902,-23.91364 20.08472,-31.25246 C 495.1142,357.71375 496.26931,357.5 506,357.5 c 9.5546,0 10.97594,0.25076 15.7859,2.78504 14.51043,7.64526 21.96315,20.14152 20.9964,35.20548 -0.86958,13.55 -9.77091,26.79328 -21.7823,32.40744 -7.54629,3.52716 -20.0592,4.02412 -27.96949,1.11085 z M 243.7626,427.5444 c -14.70048,-5.62855 -22.95874,-17.95364 -23.15958,-34.56467 -0.0931,-7.70254 0.20889,-9.15392 3.14691,-15.12258 3.85316,-7.82776 10.12926,-13.97228 18.07492,-17.69595 4.66537,-2.18638 7.10234,-2.65975 13.69618,-2.6604 7.05531,-7e-4 8.80108,0.39059 14.5,3.25002 8.16212,4.09535 11.31842,6.90993 15.45803,13.78442 8.38527,13.92513 6.16737,31.21405 -5.64876,44.03304 -6.0856,6.6021 -13.44423,9.72028 -23.8303,10.09799 -5.64939,0.20545 -9.7534,-0.17079 -12.2374,-1.12187 z m -73.99251,-69.77253 c -5.94301,-9.07019 -19.08994,-40.97754 -25.29746,-61.39646 -7.81214,-25.69715 -10.94269,-46.70372 -10.20962,-68.50849 0.99679,-29.64929 7.44289,-47.50095 22.73154,-62.95218 8.4165,-8.506 19.50898,-14.83948 29.69259,-16.95359 7.87892,-1.63566 24.88078,-0.68931 34.72609,1.9329 21.69182,5.77743 47.0272,23.17135 63.81051,43.8089 7.22649,8.88604 22.86865,32.33854 22.24352,33.35002 -0.26796,0.43358 -5.40256,2.42619 -11.41022,4.42802 -22.63614,7.54269 -38.59359,15.78223 -56.22242,29.03014 -22.16226,16.65474 -44.25942,45.38421 -54.8073,71.25733 -5.63158,13.81383 -12.00014,27.72248 -12.81862,27.99531 -0.51165,0.17055 -1.60903,-0.7258 -2.43861,-1.9919 z m 427.4334,-0.87251 c -0.93692,-1.70536 -3.10659,-5.48623 -4.82149,-8.40194 -1.7149,-2.91572 -6.81856,-12.41168 -11.34148,-21.10215 C 571.80617,309.65211 569.65503,306.27798 559.43105,293.5 547.06461,278.04438 530.04774,262.69407 511.5,250.26311 c -11.2636,-7.54903 -17.97198,-10.90117 -32.43407,-16.20712 -6.28874,-2.30725 -12.66748,-4.83282 -14.17498,-5.61238 l -2.7409,-1.41738 4.80069,-8.34285 C 485.37488,186.66514 515.26276,159.78696 542,151.19156 c 20.41336,-6.56242 36.55603,-5.54063 54.04542,3.42092 18.80884,9.63765 29.83542,24.88395 36.13083,49.95761 1.97942,7.88372 2.24046,11.44876 2.22812,30.42991 -0.0144,22.2324 -1.00569,31.24338 -5.4755,49.77549 -2.60735,10.81022 -7.75306,27.11698 -12.69313,40.22451 -3.8836,10.30437 -15.73041,35 -16.78996,35 -0.29634,0 -1.30537,-1.39529 -2.24229,-3.10064 z"
       id="path1035" />
  </g>
</svg>
