<?xml version="1.0" encoding="UTF-8" standalone="no"?>
<!-- Created with Inkscape (http://www.inkscape.org/) -->

<svg
   width="210mm"
   height="297mm"
   viewBox="0 0 210 297"
   version="1.1"
   id="svg1"
   inkscape:version="1.4 (86a8ad7, 2024-10-11)"
   sodipodi:docname="NodeIcons.svg"
   xmlns:inkscape="http://www.inkscape.org/namespaces/inkscape"
   xmlns:sodipodi="http://sodipodi.sourceforge.net/DTD/sodipodi-0.dtd"
   xmlns:xlink="http://www.w3.org/1999/xlink"
   xmlns="http://www.w3.org/2000/svg"
   xmlns:svg="http://www.w3.org/2000/svg">
  <sodipodi:namedview
     id="namedview1"
     pagecolor="#ffffff"
     bordercolor="#000000"
     borderopacity="0.25"
     inkscape:showpageshadow="2"
     inkscape:pageopacity="0.0"
     inkscape:pagecheckerboard="0"
     inkscape:deskcolor="#d1d1d1"
     inkscape:document-units="mm"
     showgrid="true"
     inkscape:zoom="1"
     inkscape:cx="474.5"
     inkscape:cy="386.5"
     inkscape:window-width="1920"
     inkscape:window-height="1147"
     inkscape:window-x="-8"
     inkscape:window-y="-8"
     inkscape:window-maximized="1"
     inkscape:current-layer="layer2">
    <inkscape:grid
       id="grid1"
       units="mm"
       originx="0"
       originy="0"
       spacingx="0.99999998"
       spacingy="1"
       empcolor="#0099e5"
       empopacity="0.30196078"
       color="#0099e5"
       opacity="0.14901961"
       empspacing="5"
       enabled="true"
       visible="true" />
  </sodipodi:namedview>
  <defs
     id="defs1">
    <linearGradient
       id="linearGradient157"
       inkscape:collect="always">
      <stop
         style="stop-color:#00dcff;stop-opacity:1;"
         offset="0"
         id="stop157" />
      <stop
         style="stop-color:#0000ff;stop-opacity:0;"
         offset="1"
         id="stop158" />
    </linearGradient>
    <linearGradient
       inkscape:collect="always"
       xlink:href="#linearGradient157"
       id="linearGradient158"
       x1="25"
       y1="80"
       x2="43.275608"
       y2="99.510414"
       gradientUnits="userSpaceOnUse" />
    <linearGradient
       inkscape:collect="always"
       xlink:href="#linearGradient157"
       id="linearGradient161"
       x1="80"
       y1="80"
       x2="100"
       y2="100"
       gradientUnits="userSpaceOnUse" />
    <linearGradient
       inkscape:collect="always"
       xlink:href="#linearGradient157"
       id="linearGradient163"
       x1="125"
       y1="99"
       x2="160"
       y2="108"
       gradientUnits="userSpaceOnUse" />
    <linearGradient
       inkscape:collect="always"
       xlink:href="#linearGradient157"
       id="linearGradient172"
       x1="78"
       y1="133"
       x2="97"
       y2="152"
       gradientUnits="userSpaceOnUse" />
  </defs>
  <g
     inkscape:label="Icon Frame"
     inkscape:groupmode="layer"
     id="layer1"
     inkscape:tile-cx="39.999999"
     inkscape:tile-cy="49.999999"
     inkscape:tile-w="50.499999"
     inkscape:tile-h="50.499999"
     inkscape:tile-x0="14.75"
     inkscape:tile-y0="24.749999">
    <rect
       style="fill:none;stroke:#000000;stroke-width:0.497271;stroke-linecap:round;stroke-linejoin:bevel;stroke-dasharray:none"
       id="rect1"
       width="49.977726"
       height="49.477722"
       x="9.7736397"
       y="10.273639"
       ry="4.7263608"
       inkscape:export-filename="node_unknown.svg"
       inkscape:export-xdpi="96"
       inkscape:export-ydpi="96" />
    <use
       x="0"
       y="0"
       xlink:href="#rect1"
       id="use144"
       transform="translate(55.248637,-0.27363901)"
       inkscape:export-filename="node_group.svg"
       inkscape:export-xdpi="96"
       inkscape:export-ydpi="96" />
    <use
       x="0"
       y="0"
       xlink:href="#rect1"
       id="use145"
       transform="translate(110.2375,-0.27363901)"
       inkscape:export-filename="node_paraxial.svg"
       inkscape:export-xdpi="96"
       inkscape:export-ydpi="96" />
    <use
       x="0"
       y="0"
       xlink:href="#rect1"
       id="use149"
       transform="translate(0.23749814,109.72636)"
       inkscape:export-filename="node_spectrometer.png"
       inkscape:export-xdpi="96"
       inkscape:export-ydpi="96" />
    <use
       x="0"
       y="0"
       xlink:href="#rect1"
       id="use150"
       transform="translate(55.237499,109.72636)"
       inkscape:export-filename="node_beamsplitter.png"
       inkscape:export-xdpi="96"
       inkscape:export-ydpi="96" />
    <use
       x="0"
       y="0"
       xlink:href="#rect1"
       id="use151"
       transform="translate(110.2375,109.72636)"
       inkscape:export-filename="node_source.svg"
       inkscape:export-xdpi="96"
       inkscape:export-ydpi="96" />
    <use
       x="0"
       y="0"
       xlink:href="#rect1"
       id="use148"
       transform="translate(110.2375,54.726358)"
       inkscape:export-filename="node_grating.png"
       inkscape:export-xdpi="96"
       inkscape:export-ydpi="96" />
    <use
       x="0"
       y="0"
       xlink:href="#rect1"
       id="use146"
       transform="translate(0.23749814,54.726359)"
       inkscape:export-filename="node_lens.svg"
       inkscape:export-xdpi="96"
       inkscape:export-ydpi="96" />
    <use
       x="0"
       y="0"
       xlink:href="#rect1"
       id="use147"
       transform="translate(55.237499,54.726359)"
       inkscape:export-filename="node_wedge.svg"
       inkscape:export-xdpi="96"
       inkscape:export-ydpi="96" />
  </g>
  <g
     inkscape:groupmode="layer"
     id="layer2"
     inkscape:label="Icon Frame 1">
    <path
       style="font-size:35.2778px;font-family:Sans;-inkscape-font-specification:'Sans, Normal';text-align:center;text-anchor:middle;stroke-width:0.5;stroke-linecap:round;stroke-linejoin:bevel"
       d="m 86.66009,51.516487 h -2.583824 q -3.083362,0 -5.012617,-1.722549 -1.912029,-1.705323 -1.912029,-4.943715 v -2.566598 q 0,-2.911108 -1.429716,-4.547529 -1.429715,-1.653647 -4.375274,-1.653647 h -0.8785 v -2.687176 h 0.8785 q 2.945559,0 4.375274,-1.636422 1.429716,-1.653647 1.429716,-4.564754 v -2.566598 q 0,-3.238392 1.912029,-4.943716 1.929255,-1.722549 5.012617,-1.722549 h 2.583824 v 2.377118 h -1.963706 q -2.342667,0 -3.410647,1.085206 -1.050755,1.085205 -1.050755,3.496774 v 3.014461 q 0,2.394343 -1.326362,4.030764 -1.326363,1.619196 -3.686255,2.566598 v 0.413412 q 2.359892,0.947401 3.686255,2.583823 1.326362,1.619196 1.326362,4.013539 v 3.01446 q 0,2.411569 1.050755,3.496775 1.06798,1.085206 3.410647,1.085206 h 1.963706 z m 22.63429,-15.434038 h -0.8785 q -2.94556,0 -4.37527,1.653647 -1.42972,1.636421 -1.42972,4.547529 v 2.566598 q 0,3.238392 -1.92925,4.943715 -1.912032,1.722549 -4.995395,1.722549 H 93.102422 V 49.13937 h 1.963706 q 2.342666,0 3.393421,-1.085206 1.06798,-1.085206 1.06798,-3.496775 v -3.01446 q 0,-2.394343 1.326361,-4.013539 1.32636,-1.636422 3.68626,-2.583823 v -0.413412 q -2.3599,-0.947402 -3.68626,-2.566598 -1.326361,-1.636421 -1.326361,-4.030764 v -3.014461 q 0,-2.411569 -1.06798,-3.496774 -1.050755,-1.085206 -3.393421,-1.085206 h -1.963706 v -2.377118 h 2.583823 q 3.083363,0 4.995395,1.722549 1.92925,1.705324 1.92925,4.943716 v 2.566598 q 0,2.911107 1.42972,4.564754 1.42971,1.636422 4.37527,1.636422 h 0.8785 z"
       id="text152"
       aria-label="{}" />
    <path
       style="font-weight:bold;font-size:35.2778px;font-family:Arial;-inkscape-font-specification:'Arial, Bold';text-align:center;text-anchor:middle;stroke-width:0.5;stroke-linecap:round;stroke-linejoin:bevel"
       d="m 36.812334,40.9831 h -4.392499 q -0.01723,-0.947402 -0.01723,-1.154107 0,-2.135961 0.706245,-3.514 0.706245,-1.378039 2.824981,-3.100588 2.118735,-1.722549 2.532146,-2.256539 0.637343,-0.844049 0.637343,-1.860353 0,-1.41249 -1.136882,-2.411569 -1.119657,-1.016303 -3.031686,-1.016303 -1.843127,0 -3.083362,1.050754 -1.240236,1.050755 -1.705324,3.203941 l -4.444176,-0.551215 q 0.18948,-3.083363 2.618274,-5.236549 2.44602,-2.153186 6.407882,-2.153186 4.168569,0 6.631814,2.187637 2.463244,2.170412 2.463244,5.064294 0,1.60197 -0.91295,3.031686 -0.895726,1.429715 -3.85851,3.89296 -1.533068,1.274687 -1.912029,2.049834 -0.361736,0.775147 -0.327285,2.773303 z m -4.392499,6.511235 v -4.840362 h 4.840362 v 4.840362 z"
       id="text151"
       aria-label="?" />
    <path
       style="fill:url(#linearGradient161);stroke:#000000;stroke-width:0.499999;stroke-linecap:round;stroke-linejoin:bevel;stroke-dasharray:none;fill-opacity:0.56078434;stroke-opacity:1"
       d="m 80.000002,74.999998 h 15 L 100,105 H 80.000002 Z"
       id="path158"
       sodipodi:nodetypes="ccccc" />
    <path
       style="fill:url(#linearGradient158);stroke:#000000;stroke-width:0.5;stroke-linecap:round;stroke-linejoin:bevel;stroke-dasharray:none"
       d="m 30,74.999997 h 10.000002 c 0,0 4.999999,5.000001 4.999997,14.999999 C 44.999997,99.999994 40.000002,105 40.000002,105 H 30 c 0,0 -5.000001,-5.000006 -5,-15.000004 1e-6,-9.999998 5,-14.999999 5,-14.999999 z"
       id="path157"
       sodipodi:nodetypes="cczcczc" />
    <path
       style="fill:none;stroke:#000000;stroke-width:1;stroke-linecap:round;stroke-linejoin:bevel;stroke-dasharray:none"
       d="m 150,49.999999 5,-5 5,5"
       id="path156"
       sodipodi:nodetypes="ccc" />
    <path
       style="fill:none;stroke:#000000;stroke-width:1;stroke-linecap:round;stroke-linejoin:bevel;stroke-dasharray:none"
       d="m 150,19.999999 5,5 5,-5"
       id="path155" />
    <path
       style="fill:#000000;stroke:#000000;stroke-width:1;stroke-linecap:round;stroke-linejoin:bevel;stroke-dasharray:none"
       d="m 135,19.999999 0,30"
       id="path152"
       sodipodi:nodetypes="cc" />
    <path
       style="fill:none;stroke:#000000;stroke-width:1;stroke-linecap:round;stroke-linejoin:bevel;stroke-dasharray:none"
       d="m 130,24.999999 5,-5 v 0 l 5,5"
       id="path153" />
    <path
       style="fill:none;stroke:#000000;stroke-width:1;stroke-linecap:round;stroke-linejoin:bevel;stroke-dasharray:none"
       d="m 130,44.999999 5,5 5.5,-4.5"
       id="path154"
       sodipodi:nodetypes="ccc" />
    <path
       style="fill:#000000;stroke:#000000;stroke-width:1;stroke-linecap:round;stroke-linejoin:bevel;stroke-dasharray:none"
       d="m 155,24.999999 0,20"
       id="path152-8"
       sodipodi:nodetypes="cc" />
    <path
       style="fill:#00ff00;fill-opacity:0.560784;stroke:#ff0000;stroke-width:1;stroke-linecap:round;stroke-linejoin:bevel;stroke-dasharray:none;stroke-opacity:1"
       d="M 142.5,101.5 150,74.999997"
       id="path164" />
    <path
       style="fill:none;fill-opacity:0.560784;stroke:#000000;stroke-width:1;stroke-linecap:round;stroke-linejoin:bevel;stroke-dasharray:none;stroke-opacity:1"
       d="M 125,74.999998 142.5,101.5"
       id="path163"
       sodipodi:nodetypes="cc" />
    <path
       style="fill:#00ff00;fill-opacity:0.560784;stroke:#00ff00;stroke-width:1;stroke-linecap:round;stroke-linejoin:bevel;stroke-dasharray:none;stroke-opacity:1"
       d="M 142.5,101.5 155,74.999997"
       id="path165" />
    <path
       style="fill:#00ff00;fill-opacity:0.560784;stroke:#0000ff;stroke-width:1;stroke-linecap:round;stroke-linejoin:bevel;stroke-dasharray:none;stroke-opacity:1"
       d="M 142.5,101.5 160,74.999997"
       id="path166" />
    <path
       style="fill:url(#linearGradient163);fill-opacity:0.560784;stroke:#000000;stroke-width:0.499999;stroke-linecap:round;stroke-linejoin:bevel;stroke-dasharray:none;stroke-opacity:1"
       d="m 125,105 h 40 V 99.999997 L 160,103 v -3.000003 l -5,3.179403 V 99.905348 L 150,103 V 99.999997 L 145,103 V 99.999997 L 140,103 V 99.999997 L 135,103 V 99.999997 L 130,103 V 99.999997 L 125,103 Z"
       id="path161" />
    <path
       style="fill:none;fill-opacity:0.560784;stroke:#000000;stroke-width:0.5;stroke-linecap:round;stroke-linejoin:bevel;stroke-dasharray:none;stroke-opacity:1"
       d="m 15,130 v 29.99999 h 40"
       id="path167" />
    <path
       style="fill:none;fill-opacity:0.560784;stroke:#000000;stroke-width:0.499999;stroke-linecap:round;stroke-linejoin:bevel;stroke-dasharray:none;stroke-opacity:1"
       d="m 14,131 1,-1 1,1"
       id="path169" />
    <path
       style="fill:none;fill-opacity:0.560784;stroke:#000000;stroke-width:0.499999;stroke-linecap:round;stroke-linejoin:bevel;stroke-dasharray:none;stroke-opacity:1"
       d="m 54,158.99999 1,1 -1,1"
       id="path170" />
    <path
       style="fill:none;fill-opacity:0.560784;stroke:#000000;stroke-width:0.499999;stroke-linecap:round;stroke-linejoin:bevel;stroke-dasharray:none;stroke-opacity:1"
       d="m 16,155 4,-1e-5 c 0,0 1,-19.99999 2.000001,-19.99999 1,-1e-5 1.999999,19.99999 1.999999,19.99999 h 3.999999 c 0,0 0.514307,-3.99999 1.000001,-3.99999 0.485694,0 1,3.99999 1,3.99999 h 3 c 0,0 1.000001,-14.99999 1.603126,-14.99999 0.603125,0 0.396877,7.99998 1.396876,7.99999 0.999999,1e-5 1.999999,-11.00001 2.999999,-11 1,1e-5 2.999999,18 2.999999,18 h 8"
       id="path171"
       sodipodi:nodetypes="cczcczcczzzcc" />
    <rect
       style="fill:url(#linearGradient172);fill-opacity:0.560784;stroke:#000000;stroke-width:0.499999;stroke-linecap:round;stroke-linejoin:bevel;stroke-dasharray:none;stroke-opacity:1"
       id="rect171"
       width="20.246597"
       height="19.677217"
       x="80"
       y="135" />
    <path
       style="fill:none;fill-opacity:0.560784;stroke:#000000;stroke-width:0.499999;stroke-linecap:round;stroke-linejoin:bevel;stroke-dasharray:none;stroke-opacity:1"
       d="M 79.999998,154.67721 100,135"
       id="path172" />
    <path
       style="fill:none;fill-opacity:0.560784;stroke:#000000;stroke-width:0.499999;stroke-linecap:round;stroke-linejoin:bevel;stroke-dasharray:none;stroke-opacity:1"
       d="M 70.000002,144.99999 H 110"
       id="path173" />
    <path
       style="fill:none;fill-opacity:0.560784;stroke:#000000;stroke-width:0.499999;stroke-linecap:round;stroke-linejoin:bevel;stroke-dasharray:none;stroke-opacity:1"
       d="m 89.999999,164.83541 2e-6,-39.68749"
       id="path174" />
    <path
       style="fill:none;fill-opacity:0.560784;stroke:#000000;stroke-width:0.499999;stroke-linecap:round;stroke-linejoin:bevel;stroke-dasharray:none;stroke-opacity:1"
       d="M 78.000002,143 80,144.99999 78.000002,147"
       id="path175" />
    <path
       style="fill:none;fill-opacity:0.560784;stroke:#000000;stroke-width:0.499999;stroke-linecap:round;stroke-linejoin:bevel;stroke-dasharray:none;stroke-opacity:1"
       d="m 108,143 2,1.99999 L 108,147"
       id="path176" />
    <path
       style="fill:none;fill-opacity:0.560784;stroke:#000000;stroke-width:0.499999;stroke-linecap:round;stroke-linejoin:bevel;stroke-dasharray:none;stroke-opacity:1"
       d="M 88,127 90.000001,124.99999 92,127"
       id="path177" />
    <path
       style="fill:none;fill-opacity:0.560784;stroke:#000000;stroke-width:0.499999;stroke-linecap:round;stroke-linejoin:bevel;stroke-dasharray:none;stroke-opacity:1"
       d="m 88,156.99999 2.000001,-2 1.999999,2"
       id="path178" />
    <path
       style="fill:none;fill-opacity:0.560784;stroke:#ff0000;stroke-width:1;stroke-linecap:round;stroke-linejoin:bevel;stroke-dasharray:none;stroke-opacity:1"
       d="M 145,159.99999 V 130 v 0"
       id="path185" />
    <path
       style="fill:none;fill-opacity:0.560784;stroke:#ff0000;stroke-width:1;stroke-linecap:round;stroke-linejoin:bevel;stroke-dasharray:none;stroke-opacity:1"
       d="m 134.3934,155.60661 21.2132,-21.21322"
       id="path186" />
    <path
       style="fill:none;fill-opacity:0.560784;stroke:#ff0000;stroke-width:1;stroke-linecap:round;stroke-linejoin:bevel;stroke-dasharray:none;stroke-opacity:1"
       d="M 155.60661,155.6066 134.39339,134.3934"
       id="path187" />
    <path
       style="fill:none;fill-opacity:0.560784;stroke:#ff0000;stroke-width:1;stroke-linecap:round;stroke-linejoin:bevel;stroke-dasharray:none;stroke-opacity:1"
       d="M 124.78814,145 160,144.99999"
       id="path188" />
    <path
       style="fill:none;fill-opacity:0.560784;stroke:#ff0000;stroke-width:1;stroke-linecap:round;stroke-linejoin:bevel;stroke-dasharray:none;stroke-opacity:1"
       d="m 137.78862,147.96875 14.42276,-5.9375"
       id="path190" />
    <path
       style="fill:none;fill-opacity:0.560784;stroke:#ff0000;stroke-width:1;stroke-linecap:round;stroke-linejoin:bevel;stroke-dasharray:none;stroke-opacity:1"
       d="m 142,152.19844 5.99999,-14.39688"
       id="path191" />
    <path
       style="fill:none;fill-opacity:0.560784;stroke:#ff0000;stroke-width:1;stroke-linecap:round;stroke-linejoin:bevel;stroke-dasharray:none;stroke-opacity:1"
       d="m 137.80156,142 14.39688,5.99999"
       id="path192" />
    <path
       style="fill:none;fill-opacity:0.560784;stroke:#ff0000;stroke-width:1;stroke-linecap:round;stroke-linejoin:bevel;stroke-dasharray:none;stroke-opacity:1"
       d="m 142.03125,137.78862 5.9375,14.42276"
       id="path193" />
  </g>
</svg>
